<!DOCTYPE svg PUBLIC "-//W3C//DTD SVG 1.1//EN" "http://www.w3.org/Graphics/SVG/1.1/DTD/svg11.dtd">
<!-- Uploaded to: SVG Repo, www.svgrepo.com, Transformed by: SVG Repo Mixer Tools -->
<svg fill="#433247" width="800px" height="800px" viewBox="0 0 24 24" xmlns="http://www.w3.org/2000/svg">
<g id="SVGRepo_bgCarrier" stroke-width="0"/>
<g id="SVGRepo_tracerCarrier" stroke-linecap="round" stroke-linejoin="round"/>
<g id="SVGRepo_iconCarrier"> <g data-name="Layer 2"> <g data-name="shopping-cart"> <rect width="24" height="24" opacity="0"/> <path d="M21.08 7a2 2 0 0 0-1.7-1H6.58L6 3.74A1 1 0 0 0 5 3H3a1 1 0 0 0 0 2h1.24L7 15.26A1 1 0 0 0 8 16h9a1 1 0 0 0 .89-.55l3.28-6.56A2 2 0 0 0 21.08 7z"/> <circle cx="7.5" cy="19.5" r="1.5"/> <circle cx="17.5" cy="19.5" r="1.5"/> </g> </g> </g>
</svg>